<?xml version="1.0" encoding="utf-8"?>
<!-- Generator: Adobe Illustrator 17.0.0, SVG Export Plug-In . SVG Version: 6.00 Build 0)  -->
<!DOCTYPE svg PUBLIC "-//W3C//DTD SVG 1.1//EN" "http://www.w3.org/Graphics/SVG/1.1/DTD/svg11.dtd">
<svg version="1.1" id="Layer_1" xmlns="http://www.w3.org/2000/svg" xmlns:xlink="http://www.w3.org/1999/xlink" x="0px" y="0px"
	 width="291.573px" height="310.073px" viewBox="0 0 291.573 310.073" enable-background="new 0 0 291.573 310.073"
	 xml:space="preserve">
<linearGradient id="SVGID_1_" gradientUnits="userSpaceOnUse" x1="145.7863" y1="-6.545633e-09" x2="145.7863" y2="310.0734">
	<stop  offset="0" style="stop-color:#F8F7EE"/>
	<stop  offset="1" style="stop-color:#E6E2E5"/>
</linearGradient>
<path fill="url(#SVGID_1_)" d="M291.573,191.439V0H0v191.439c32.393-8.045,85.603-13.295,145.787-13.295
	C205.97,178.144,259.18,183.394,291.573,191.439z"/>
<linearGradient id="SVGID_2_" gradientUnits="userSpaceOnUse" x1="145.7863" y1="-2.071636e-06" x2="145.7863" y2="310.0734">
	<stop  offset="0" style="stop-color:#F8F7EE"/>
	<stop  offset="1" style="stop-color:#E6E2E5"/>
</linearGradient>
<path fill="url(#SVGID_2_)" d="M145.787,178.144c-60.184,0-113.394,5.25-145.787,13.295v118.634h291.573V191.439
	C259.18,183.394,205.97,178.144,145.787,178.144z"/>
<g>
	<ellipse fill="#FFFFFF" cx="146.23" cy="63.749" rx="51.293" ry="10.253"/>
	<path fill="#FFFFFF" d="M144.642,231.162c-12.785,0-28.142-1.537-37.971-5.586c0.175,0.452,0.449,0.872,0.846,1.207
		c6.934,5.85,23.787,7.935,37.243,7.935c0.002,0,0.002,0,0.004,0c13.911,0,31.341-2.209,38.537-8.407
		c0.362-0.312,0.629-0.706,0.805-1.139c-10.173,4.346-26.167,5.991-39.459,5.991C144.644,231.162,144.644,231.162,144.642,231.162z"
		/>
	<path fill="#FFFFFF" d="M146.23,80.621c-14.515,0-27.77-1.107-37.92-2.931c-5.339-0.959-9.786-2.121-13.128-3.422l1.556,18.559
		c10.109,3.463,28.472,5.784,49.492,5.784c10.733,0,20.768-0.606,29.368-1.66v95.505l11.617-97.38
		c3.627-0.757,6.778-1.611,9.33-2.545l1.429-18.529c-3.404,1.411-8.119,2.663-13.824,3.689C174,79.514,160.745,80.621,146.23,80.621
		z"/>
</g>
<path opacity="0.69" fill="#FFFFFF" d="M145.787,178.144c-60.184,0-113.394,5.25-145.787,13.295v118.634h291.573V191.439
	C259.18,183.394,205.97,178.144,145.787,178.144z"/>
<linearGradient id="SVGID_3_" gradientUnits="userSpaceOnUse" x1="145.7863" y1="244.1088" x2="145.7863" y2="47.4638">
	<stop  offset="0" style="stop-color:#E8C345"/>
	<stop  offset="0.3551" style="stop-color:#BE812B"/>
	<stop  offset="1" style="stop-color:#975B25"/>
</linearGradient>
<path fill="url(#SVGID_3_)" d="M204.581,62.468c0-8.287-26.323-15.004-58.795-15.004c-32.471,0-58.795,6.718-58.795,15.004
	c0,0.158,0.028,0.314,0.047,0.47c-0.011,0.113-0.047,0.226-0.047,0.34c4.518,48.81,8.801,113.557,12.991,162.397
	c0.657,7.653,4.382,11.95,11.685,14.008c11.366,3.203,22.741,4.587,34.119,4.411c11.378,0.177,22.753-1.208,34.119-4.411
	c7.303-2.058,11.029-6.356,11.685-14.008c4.19-48.839,8.473-113.587,12.991-162.397c0-0.114-0.036-0.226-0.047-0.34
	C204.553,62.782,204.581,62.626,204.581,62.468z M146.214,53.496c28.328,0,51.293,4.59,51.293,10.253
	c0,5.662-22.965,10.253-51.293,10.253c-28.328,0-51.293-4.59-51.293-10.253C94.921,58.087,117.886,53.496,146.214,53.496z
	 M183.285,226.311c-7.196,6.198-24.626,8.407-38.537,8.407c-0.002,0-0.002,0-0.004,0c-13.456,0-30.309-2.085-37.243-7.935
	c-0.397-0.335-0.671-0.755-0.846-1.207c9.829,4.05,25.186,5.587,37.971,5.587c0.002,0,0.002,0,0.004,0
	c13.293,0,29.287-1.645,39.46-5.991C183.914,225.605,183.647,225.999,183.285,226.311z M196.529,92.531
	c-2.552,0.934-5.703,1.788-9.33,2.545l-11.617,97.38V96.952c-8.6,1.054-18.635,1.66-29.368,1.66c-21.02,0-39.383-2.321-49.492-5.784
	l-1.556-18.559c3.342,1.301,7.79,2.462,13.128,3.422c10.15,1.824,23.404,2.931,37.92,2.931c14.515,0,27.77-1.107,37.92-2.931
	c5.705-1.025,10.42-2.278,13.824-3.689L196.529,92.531z"/>
<path opacity="0.3" fill="#BBB19D" d="M191.893,222.079c-0.101,1.193-0.202,2.42-0.303,3.595
	c-0.657,7.653-4.382,11.95-11.685,14.008c-11.365,3.203-22.741,4.587-34.118,4.411c-11.378,0.177-22.753-1.208-34.119-4.411
	c-7.303-2.058-11.028-6.356-11.685-14.008c-0.101-1.175-0.202-2.402-0.303-3.595c-17.93,3.249-29.493,8.344-29.493,14.077
	c0,9.813,33.847,17.768,75.6,17.768s75.6-7.955,75.6-17.768C221.386,230.424,209.823,225.328,191.893,222.079z"/>
</svg>
