<?xml version="1.0" encoding="iso-8859-1"?>
<!-- Generator: Adobe Illustrator 16.0.0, SVG Export Plug-In . SVG Version: 6.00 Build 0)  -->
<!DOCTYPE svg PUBLIC "-//W3C//DTD SVG 1.1//EN" "http://www.w3.org/Graphics/SVG/1.1/DTD/svg11.dtd">
<svg version="1.1" id="Capa_1" xmlns="http://www.w3.org/2000/svg" xmlns:xlink="http://www.w3.org/1999/xlink" x="0px" y="0px"
	 width="11.617px" height="23.101px" viewBox="0 0 11.617 23.101" style="enable-background:new 0 0 11.617 23.101;"
	 xml:space="preserve">
<path d="M2.516,4.458c0-0.144,0.02-0.455,0.06-0.931C2.619,3.05,2.799,2.551,3.122,2.027c0.32-0.522,0.839-0.991,1.561-1.406
	C5.402,0.208,6.441,0,7.797,0h3.82v4.163H8.82c-0.277,0-0.535,0.104-0.768,0.309c-0.231,0.205-0.35,0.4-0.35,0.581v2.59h3.914
	c-0.041,0.507-0.086,1-0.138,1.476l-0.155,1.258c-0.062,0.425-0.125,0.819-0.187,1.182H7.674v11.542H2.516V11.558H0V7.643h2.516
	V4.458z"/>
<g>
</g>
<g>
</g>
<g>
</g>
<g>
</g>
<g>
</g>
<g>
</g>
<g>
</g>
<g>
</g>
<g>
</g>
<g>
</g>
<g>
</g>
<g>
</g>
<g>
</g>
<g>
</g>
<g>
</g>
</svg>
